<?xml version="1.0" encoding="utf-8"?>
<!-- Generator: Adobe Illustrator 27.0.1, SVG Export Plug-In . SVG Version: 6.00 Build 0)  -->
<svg version="1.1" id="Layer_1" xmlns="http://www.w3.org/2000/svg" xmlns:xlink="http://www.w3.org/1999/xlink" x="0px" y="0px"
	 viewBox="0 0 993.7 422.3" style="enable-background:new 0 0 993.7 422.3;" xml:space="preserve">
<style type="text/css">
	.st0{fill:#EEEDEF;}
	.st1{fill:#3F3D56;}
	.st2{fill:#F42A34;}
	.st3{fill:#E6E6E6;}
</style>
<path class="st0" d="M608,422.3H386.6c-6.3,0-11.4-3.7-11.4-8.2V125c0-4.5,5.1-8.2,11.4-8.2H608c6.3,0,11.4,3.7,11.4,8.2v289.1
	C619.4,418.6,614.3,422.3,608,422.3z M617.5,199c0-2.8-4.2-5.1-9.5-5.1c0,0-134.9,0-134.9,0c-53,0-96,23.3-96,52.1v169.9
	c0,2.8,4.2,5.1,9.5,5.1H608c5.2,0,9.5-2.3,9.5-5.1"/>
<polygon class="st1" points="380.3,279.6 383.2,356.3 376.2,356.3 376.2,365 395.9,365 395.9,356.3 390.1,356.3 390.5,279.6 "/>
<path class="st1" d="M372.7,344L372.7,344c3,0,5.4,2.4,5.4,5.4v22.4c0,3-2.4,5.4-5.4,5.4h0c-3,0-5.4-2.4-5.4-5.4v-22.4
	C367.3,346.4,369.7,344,372.7,344z"/>
<path class="st1" d="M400.2,344L400.2,344c3,0,5.4,2.4,5.4,5.4v22.4c0,3-2.4,5.4-5.4,5.4h0c-3,0-5.4-2.4-5.4-5.4v-22.4
	C394.8,346.4,397.2,344,400.2,344z"/>
<polygon class="st2" points="444.4,231.8 332.9,226.7 350.3,218.8 448,220.2 "/>
<polygon class="st2" points="0,243 13.5,238 431.4,248.8 448.7,240.9 441.5,290.1 109.5,254.7 "/>
<polygon class="st1" points="107.5,271.6 109.5,254.7 441.5,290.1 439.7,315 "/>
<ellipse class="st1" cx="330.8" cy="285" rx="34.4" ry="36.6"/>
<circle class="st2" cx="330.8" cy="278.5" r="25.3"/>
<polygon class="st1" points="613.4,279.6 610.5,356.3 617.5,356.3 617.5,365 597.8,365 597.8,356.3 603.6,356.3 603.2,279.6 "/>
<path class="st1" d="M621,344L621,344c3,0,5.4,2.4,5.4,5.4v22.4c0,3-2.4,5.4-5.4,5.4h0c-3,0-5.4-2.4-5.4-5.4v-22.4
	C615.6,346.4,618,344,621,344z"/>
<path class="st1" d="M593.5,344L593.5,344c3,0,5.4,2.4,5.4,5.4v22.4c0,3-2.4,5.4-5.4,5.4h0c-3,0-5.4-2.4-5.4-5.4v-22.4
	C588.1,346.4,590.5,344,593.5,344z"/>
<polygon class="st2" points="549.3,231.8 660.8,226.7 643.4,218.8 545.7,220.2 "/>
<polygon class="st2" points="509.4,216.2 504.4,104.7 496.4,122.1 497.9,219.8 "/>
<polygon class="st2" points="993.7,243 980.3,238 562.4,248.8 545,240.9 552.2,290.1 884.2,254.7 "/>
<polygon class="st1" points="886.3,271.6 884.2,254.7 552.2,290.1 554,315 "/>
<ellipse class="st1" cx="663" cy="285" rx="34.4" ry="36.6"/>
<circle class="st2" cx="663" cy="278.5" r="25.3"/>
<path class="st2" d="M560,217.9l-1.6,12.1l-0.9,65.2c-0.1,4.8-0.7,9.6-1.8,14.3c-3.2,13.5-10.6,25.8-21.5,34.8
	c-9.9,8.1-23.5,14.2-41.4,13.2c-47.8-2.9-52-43.5-52-43.5l1.8-73.7l0.2-10.1l2.2-18.2c0,0,5.8-51.4,59.3-49.9S560,217.9,560,217.9z"
	/>
<polygon class="st3" points="456.7,200.9 467.6,183.5 481.3,179.2 528.3,179.2 539.9,183.5 550.4,200.9 531.2,192.2 477.4,192.2 "/>
<g>
	<polygon class="st1" points="496.5,325.8 498.4,375 493.8,375 493.8,380.6 506.5,380.6 506.5,375 502.8,375 503.1,325.8 	"/>
	<path class="st1" d="M491.6,367.1L491.6,367.1c1.9,0,3.5,1.6,3.5,3.5V385c0,1.9-1.6,3.5-3.5,3.5l0,0c-1.9,0-3.5-1.6-3.5-3.5v-14.4
		C488.2,368.7,489.7,367.1,491.6,367.1z"/>
	<path class="st1" d="M509.3,367.1L509.3,367.1c1.9,0,3.5,1.6,3.5,3.5V385c0,1.9-1.6,3.5-3.5,3.5l0,0c-1.9,0-3.5-1.6-3.5-3.5v-14.4
		C505.8,368.7,507.4,367.1,509.3,367.1z"/>
</g>
<rect x="460.3" y="185.8" transform="matrix(0.2676 -0.9635 0.9635 0.2676 170.8337 598.33)" class="st2" width="37.4" height="2"/>
<rect x="530" y="174.1" transform="matrix(0.9812 -0.1928 0.1928 0.9812 -27.2085 106.0012)" class="st2" width="2" height="37.4"/>
<circle class="st2" cx="734.4" cy="103.8" r="13"/>
<circle class="st2" cx="374.6" cy="146.3" r="13"/>
<path class="st3" d="M80.2,390.3c0,0.7,0.8,1.2,1.7,1.2h292.5c0.9,0,1.7-0.5,1.7-1.2c0-0.7-0.8-1.2-1.7-1.2H81.9
	C81,389.1,80.2,389.6,80.2,390.3z"/>
<circle class="st2" cx="196.4" cy="388.8" r="13"/>
</svg>
