<?xml version="1.0" encoding="UTF-8"?><svg id="Layer_1" xmlns="http://www.w3.org/2000/svg" viewBox="0 0 131.11 66.77"><defs><style>.cls-1{isolation:isolate;opacity:.98;}.cls-1,.cls-2{fill:#280659;}</style></defs><g><path class="cls-1" d="M.87,.1c-.34,.2-.31,.35-.35,.47-.04,.12-.07,.24-.09,.38-.05,.28-.09,.63-.13,1.08-.08,.88-.13,2.1-.18,3.54C.03,8.45,0,12.25,0,16.05s.08,7.6,.19,10.49c.06,1.44,.12,2.66,.2,3.54,.04,.44,.08,.8,.14,1.08,.03,.14,.05,.26,.09,.38s0,.27,.36,.46c.34,.19,.46,.09,.59,.07,.12-.03,.24-.06,.38-.11,.27-.1,.6-.24,1.01-.43,.81-.38,1.91-.94,3.2-1.62,2.59-1.37,5.95-3.24,9.28-5.15,3.34-1.91,6.65-3.87,9.13-5.41,1.24-.77,2.27-1.44,3.01-1.95,.37-.26,.66-.47,.88-.65,.11-.09,.2-.17,.28-.27,.08-.09-2.41-.2-2.41-.59s2.5-.38,2.41-.48c-.08-.09-.18-.17-.29-.26-.22-.18-.51-.39-.88-.65-.74-.5-1.78-1.16-3.02-1.92-2.49-1.52-5.82-3.45-9.16-5.34-3.35-1.89-6.72-3.73-9.32-5.08-1.3-.67-2.4-1.22-3.21-1.59-.41-.19-.74-.33-1.01-.42-.14-.05-.25-.08-.38-.11-.12-.02-.25-.12-.59,.07h0Zm.68,2.01c.03-.37,.43-.6,.78-.45h0c.78,.35,1.87,.9,3.16,1.56,2.57,1.33,5.94,3.17,9.28,5.06,3.34,1.88,6.65,3.81,9.13,5.31,1.24,.75,2.26,1.4,2.97,1.89,.27,.18-10.83,.64-16.78,.64,.68,0,15-.09,5.26-.08-9.26,0,11.77,.16,11.53,.33-.7,.49-1.72,1.15-2.96,1.91-2.46,1.53-5.76,3.48-9.09,5.39s-6.68,3.78-9.25,5.13c-1.28,.68-2.37,1.23-3.15,1.59h0c-.35,.16-.74-.06-.78-.44h0c-.08-.84-.14-2.04-.2-3.48-.11-2.86-.28-5.42-.29-9.21,0-3.79,.13-8.81,.22-11.68,.05-1.43,.11-2.63,.18-3.48h0Z"/><path class="cls-1" d="M4.27,66.63c-.81-.46,.81,.46,0,0h0Z"/></g><path class="cls-2" d="M35.79,21.99v-4.9h1.74v1.19c.83,1.47,1.92,2.2,3.27,2.2,.69,0,1.27-.2,1.74-.61s.71-.94,.71-1.6-.19-1.1-.58-1.38c-.39-.28-1.12-.57-2.19-.84-1.25-.32-2.17-.63-2.77-.91-.6-.29-1.08-.7-1.44-1.23-.35-.54-.53-1.17-.53-1.9,0-1.13,.39-2.03,1.16-2.71,.78-.68,1.76-1.02,2.93-1.02s2.15,.35,3.1,1.05v-.9h1.7v4.09h-1.7v-.94c-.71-1.04-1.7-1.56-2.95-1.56-.76,0-1.34,.17-1.75,.51s-.61,.74-.61,1.21c0,.36,.1,.68,.31,.96,.21,.27,.47,.47,.79,.6s.95,.31,1.89,.54c1.23,.31,2.12,.6,2.67,.87,.55,.26,1.03,.71,1.43,1.34,.4,.63,.6,1.35,.6,2.16,0,1.15-.42,2.1-1.26,2.85-.83,.75-1.87,1.12-3.1,1.12s-2.41-.44-3.42-1.33v1.12h-1.74v.02Zm12.08-12.58c0-.3,.11-.56,.32-.78,.22-.22,.5-.33,.83-.33,.31,0,.58,.11,.81,.32s.34,.48,.34,.79-.11,.58-.34,.8c-.23,.21-.5,.32-.81,.32s-.59-.11-.82-.33c-.22-.22-.33-.48-.33-.79Zm.27,10.94v-6.11h-1.51v-1.64h3.41v7.75h1.49v1.64h-4.9v-1.64h1.51Zm4.43-6.11v-1.64h1.26v-1.44l1.9-1.69v3.13h1.79v1.64h-1.79v4.56c0,.73,.04,1.18,.12,1.36,.09,.17,.3,.25,.63,.25,.35,0,.7-.06,1.04-.19v1.68c-.49,.17-.97,.25-1.46,.25-.58,0-1.05-.12-1.41-.37s-.59-.57-.68-.94-.14-1.02-.14-1.94v-4.65h-1.26Zm7.47-4.84c0-.3,.11-.56,.32-.78,.22-.22,.5-.33,.83-.33,.31,0,.58,.11,.81,.32s.34,.48,.34,.79-.11,.58-.34,.8c-.23,.21-.5,.32-.81,.32s-.59-.11-.82-.33c-.22-.22-.33-.48-.33-.79Zm.27,10.94v-6.11h-1.51v-1.64h3.41v7.75h1.49v1.64h-4.9v-1.64h1.51Zm7.97-7.75v1.13c1.22-.85,2.33-1.28,3.34-1.28,.63,0,1.14,.15,1.55,.44,.41,.28,.68,.64,.81,1.06,.13,.41,.19,1.02,.19,1.82v4.58h1.63v1.64h-3.53v-6.14c0-.71-.11-1.17-.33-1.39s-.49-.33-.81-.33c-.84,0-1.79,.4-2.85,1.19v5.02h1.67v1.64h-5.27v-1.64h1.7v-6.11h-1.7v-1.64h3.6Zm20.18,.01v1.64h-1.74v6.99c0,.94-.05,1.64-.15,2.09-.1,.46-.34,.92-.73,1.4-.38,.48-.95,.88-1.72,1.2-.77,.32-1.62,.48-2.57,.48-1.43,0-2.7-.42-3.82-1.25l1.24-1.34c.84,.63,1.76,.95,2.74,.95,.55,0,1.05-.1,1.52-.31,.47-.2,.81-.45,1.04-.74,.23-.29,.38-.57,.45-.83s.1-.7,.1-1.32v-.85c-.3,.37-.77,.72-1.41,1.05-.64,.33-1.34,.49-2.1,.49-1.39,0-2.52-.47-3.39-1.4s-1.31-2.07-1.31-3.43c0-1.49,.48-2.69,1.44-3.6,.97-.92,2.08-1.38,3.35-1.38s2.42,.49,3.42,1.48v-1.34h3.64v.02Zm-9.84,4.79c0,.95,.28,1.73,.85,2.33s1.3,.9,2.19,.9,1.61-.3,2.24-.9c.63-.61,.94-1.39,.94-2.34s-.31-1.74-.94-2.32c-.63-.59-1.35-.88-2.18-.88s-1.55,.29-2.17,.87c-.62,.58-.93,1.35-.93,2.34Zm15.28,4.73l-3.54-11.94h-1.67v-1.69h5.32v1.69h-1.67l2.63,8.82,2.53-8.82h-1.66v-1.69h6.39v1.69h-1.63l2.54,8.82,2.58-8.82h-1.65v-1.69h5.11v1.69h-1.64l-3.47,11.94h-1.99l-3.13-10.67-3.11,10.67h-1.94Zm24.43-4.36h-8.15c.12,.87,.47,1.57,1.06,2.1,.59,.54,1.34,.8,2.25,.8,1.33,0,2.38-.52,3.15-1.55l1.68,.72c-.55,.82-1.26,1.43-2.13,1.83-.87,.39-1.79,.59-2.74,.59-1.48,0-2.75-.45-3.8-1.34-1.05-.9-1.57-2.11-1.57-3.63s.51-2.63,1.53-3.56c1.03-.93,2.21-1.4,3.53-1.4s2.48,.46,3.53,1.37c1.06,.9,1.61,2.26,1.65,4.05v.02Zm-1.95-1.34c-.13-.66-.49-1.25-1.06-1.78-.57-.54-1.28-.8-2.11-.8-.76,0-1.41,.24-1.95,.73-.54,.48-.87,1.1-.99,1.86h6.11Zm2.94,5.56v-1.64h1.72V10.15h-1.72v-1.64h3.58v5.43c.95-1.06,2.13-1.59,3.51-1.59s2.45,.45,3.35,1.34c.91,.89,1.36,2.06,1.36,3.51s-.44,2.57-1.33,3.53c-.88,.95-2.01,1.43-3.39,1.43-.77,0-1.48-.16-2.12-.48s-1.1-.68-1.38-1.08v1.41h-3.58v-.02Zm3.64-4.67c0,.98,.31,1.75,.92,2.33,.62,.57,1.33,.85,2.14,.85,.85,0,1.58-.3,2.19-.91s.92-1.42,.92-2.44-.31-1.75-.92-2.3-1.32-.82-2.14-.82-1.53,.28-2.16,.85c-.63,.56-.95,1.38-.95,2.44Z"/></svg>