<?xml version="1.0" encoding="utf-8"?>
<!-- Generator: Adobe Illustrator 27.0.1, SVG Export Plug-In . SVG Version: 6.00 Build 0)  -->
<svg version="1.1" id="Layer_1" xmlns="http://www.w3.org/2000/svg" xmlns:xlink="http://www.w3.org/1999/xlink" x="0px" y="0px"
	 viewBox="0 0 134.3 32.1" style="enable-background:new 0 0 134.3 32.1;" xml:space="preserve">
<style type="text/css">
	.st0{opacity:0.98;fill:#280659;enable-background:new    ;}
	.st1{fill:#280659;}
</style>
<g>
	<path class="st0" d="M4.1,0.1C3.7,0.3,3.8,0.5,3.7,0.6S3.7,0.8,3.6,1C3.6,1.2,3.6,1.6,3.5,2C3.4,2.9,3.4,4.1,3.3,5.6
		c-0.1,2.9-0.1,6.7-0.1,10.5s0.1,7.6,0.2,10.5c0.1,1.4,0.1,2.7,0.2,3.5c0,0.4,0.1,0.8,0.1,1.1c0,0.1,0,0.3,0.1,0.4
		c0,0.1,0,0.3,0.4,0.5c0.3,0.2,0.5,0.1,0.6,0.1C4.9,32.1,5,32,5.2,32c0.3-0.1,0.6-0.2,1-0.4c0.8-0.4,1.9-0.9,3.2-1.6
		c2.6-1.4,5.9-3.2,9.3-5.1c3.3-1.9,6.6-3.9,9.1-5.4c1.2-0.8,2.3-1.4,3-2c0.4-0.3,0.7-0.5,0.9-0.6c0.1-0.1,0.2-0.2,0.3-0.3
		c0.1-0.1-2.4-0.2-2.4-0.6s2.5-0.4,2.4-0.5c-0.1-0.1-0.2-0.2-0.3-0.3c-0.2-0.2-0.5-0.4-0.9-0.6c-0.7-0.5-1.8-1.2-3-1.9
		c-2.5-1.5-5.8-3.4-9.2-5.3c-3.4-1.9-6.7-3.7-9.3-5.1C8,1.5,6.9,1,6.1,0.6c-0.4-0.2-0.7-0.3-1-0.4C4.9,0.1,4.8,0.1,4.7,0.1
		C4.6,0,4.4-0.1,4.1,0.1L4.1,0.1z M4.8,2.1c0-0.4,0.4-0.6,0.8-0.5l0,0C6.3,2,7.4,2.6,8.7,3.2c2.6,1.3,5.9,3.2,9.3,5.1
		c3.3,1.9,6.6,3.8,9.1,5.3c1.2,0.8,2.3,1.4,3,1.9c0.3,0.2-10.8,0.6-16.8,0.6c0.7,0,15-0.1,5.3-0.1c-9.3,0,11.8,0.2,11.5,0.3
		c-0.7,0.5-1.7,1.1-3,1.9c-2.5,1.5-5.8,3.5-9.1,5.4s-6.7,3.8-9.2,5.1c-1.3,0.7-2.4,1.2-3.2,1.6l0,0c-0.3,0.2-0.7-0.1-0.8-0.4l0,0
		c-0.1-0.8-0.1-2-0.2-3.5c-0.1-2.9-0.3-5.4-0.3-9.2c0-3.8,0.1-8.8,0.2-11.7C4.6,4.2,4.7,3,4.8,2.1L4.8,2.1L4.8,2.1z"/>
	<path class="st0" d="M7.5,66.6C6.7,66.2,8.3,67.1,7.5,66.6L7.5,66.6z"/>
</g>
<path class="st1" d="M39,22v-4.9h1.7v1.2c0.8,1.5,1.9,2.2,3.3,2.2c0.7,0,1.3-0.2,1.7-0.6s0.7-0.9,0.7-1.6s-0.2-1.1-0.6-1.4
	c-0.4-0.3-1.1-0.6-2.2-0.8c-1.2-0.3-2.2-0.6-2.8-0.9c-0.6-0.3-1.1-0.7-1.4-1.2C39.1,13.4,39,12.8,39,12c0-1.1,0.4-2,1.2-2.7
	c0.8-0.7,1.8-1,2.9-1s2.2,0.4,3.1,1.1V8.4h1.7v4.1h-1.7v-0.9c-0.7-1-1.7-1.6-3-1.6c-0.8,0-1.3,0.2-1.8,0.5s-0.6,0.7-0.6,1.2
	c0,0.4,0.1,0.7,0.3,1c0.2,0.3,0.5,0.5,0.8,0.6s1,0.3,1.9,0.5c1.2,0.3,2.1,0.6,2.7,0.9c0.5,0.3,1,0.7,1.4,1.3
	c0.4,0.6,0.6,1.4,0.6,2.2c0,1.1-0.4,2.1-1.3,2.9c-0.8,0.8-1.9,1.1-3.1,1.1s-2.4-0.4-3.4-1.3V22L39,22L39,22z M51.1,9.4
	c0-0.3,0.1-0.6,0.3-0.8c0.2-0.2,0.5-0.3,0.8-0.3c0.3,0,0.6,0.1,0.8,0.3s0.3,0.5,0.3,0.8S53.3,10,53,10.2c-0.2,0.2-0.5,0.3-0.8,0.3
	s-0.6-0.1-0.8-0.3C51.2,10,51.1,9.7,51.1,9.4z M51.4,20.4v-6.1h-1.5v-1.6h3.4v7.8h1.5V22h-4.9v-1.6H51.4z M55.8,14.3v-1.6H57v-1.4
	l1.9-1.7v3.1h1.8v1.6h-1.8v4.6c0,0.7,0,1.2,0.1,1.4c0.1,0.2,0.3,0.2,0.6,0.2c0.3,0,0.7-0.1,1-0.2v1.7c-0.5,0.2-1,0.2-1.5,0.2
	c-0.6,0-1-0.1-1.4-0.4s-0.6-0.6-0.7-0.9s-0.1-1-0.1-1.9v-4.7L55.8,14.3L55.8,14.3z M63.3,9.4c0-0.3,0.1-0.6,0.3-0.8
	c0.2-0.2,0.5-0.3,0.8-0.3c0.3,0,0.6,0.1,0.8,0.3c0.2,0.2,0.3,0.5,0.3,0.8s-0.1,0.6-0.3,0.8c-0.2,0.2-0.5,0.3-0.8,0.3
	c-0.3,0-0.6-0.1-0.8-0.3C63.4,10,63.3,9.7,63.3,9.4z M63.5,20.4v-6.1H62v-1.6h3.4v7.8h1.5V22H62v-1.6H63.5z M71.5,12.6v1.1
	c1.2-0.9,2.3-1.3,3.3-1.3c0.6,0,1.1,0.1,1.6,0.4c0.4,0.3,0.7,0.6,0.8,1.1c0.1,0.4,0.2,1,0.2,1.8v4.6H79V22h-3.5v-6.1
	c0-0.7-0.1-1.2-0.3-1.4s-0.5-0.3-0.8-0.3c-0.8,0-1.8,0.4-2.8,1.2v5h1.7V22h-5.3v-1.6h1.7v-6.1h-1.7v-1.6L71.5,12.6L71.5,12.6z
	 M91.7,12.6v1.6h-1.7v7c0,0.9-0.1,1.6-0.2,2.1c-0.1,0.5-0.3,0.9-0.7,1.4c-0.4,0.5-0.9,0.9-1.7,1.2c-0.8,0.3-1.6,0.5-2.6,0.5
	c-1.4,0-2.7-0.4-3.8-1.2l1.2-1.3c0.8,0.6,1.8,1,2.7,1c0.6,0,1.1-0.1,1.5-0.3c0.5-0.2,0.8-0.5,1-0.7c0.2-0.3,0.4-0.6,0.4-0.8
	s0.1-0.7,0.1-1.3v-0.9c-0.3,0.4-0.8,0.7-1.4,1c-0.6,0.3-1.3,0.5-2.1,0.5c-1.4,0-2.5-0.5-3.4-1.4s-1.3-2.1-1.3-3.4
	c0-1.5,0.5-2.7,1.4-3.6c1-0.9,2.1-1.4,3.3-1.4s2.4,0.5,3.4,1.5v-1.3L91.7,12.6L91.7,12.6z M81.8,17.4c0,1,0.3,1.7,0.8,2.3
	s1.3,0.9,2.2,0.9s1.6-0.3,2.2-0.9c0.6-0.6,0.9-1.4,0.9-2.3s-0.3-1.7-0.9-2.3c-0.6-0.6-1.3-0.9-2.2-0.9s-1.6,0.3-2.2,0.9
	C82.1,15.6,81.8,16.4,81.8,17.4z M97.1,22.1l-3.5-11.9h-1.7V8.5h5.3v1.7h-1.7l2.6,8.8l2.5-8.8h-1.7V8.5h6.4v1.7h-1.6l2.5,8.8
	l2.6-8.8h-1.7V8.5h5.1v1.7h-1.6l-3.5,11.9h-2l-3.1-10.7l-3.1,10.7H97.1z M121.5,17.8h-8.2c0.1,0.9,0.5,1.6,1.1,2.1
	c0.6,0.5,1.3,0.8,2.2,0.8c1.3,0,2.4-0.5,3.2-1.5l1.7,0.7c-0.6,0.8-1.3,1.4-2.1,1.8c-0.9,0.4-1.8,0.6-2.7,0.6c-1.5,0-2.8-0.5-3.8-1.3
	c-1.1-0.9-1.6-2.1-1.6-3.6s0.5-2.6,1.5-3.6c1-0.9,2.2-1.4,3.5-1.4s2.5,0.5,3.5,1.4C120.9,14.6,121.5,16,121.5,17.8L121.5,17.8z
	 M119.6,16.4c-0.1-0.7-0.5-1.3-1.1-1.8c-0.6-0.5-1.3-0.8-2.1-0.8c-0.8,0-1.4,0.2-1.9,0.7c-0.5,0.5-0.9,1.1-1,1.9L119.6,16.4
	L119.6,16.4z M122.5,22v-1.6h1.7V10.2h-1.7V8.5h3.6V14c0.9-1.1,2.1-1.6,3.5-1.6s2.4,0.4,3.3,1.3c0.9,0.9,1.4,2.1,1.4,3.5
	s-0.4,2.6-1.3,3.5c-0.9,1-2,1.4-3.4,1.4c-0.8,0-1.5-0.2-2.1-0.5c-0.6-0.3-1.1-0.7-1.4-1.1V22L122.5,22L122.5,22z M126.2,17.3
	c0,1,0.3,1.8,0.9,2.3c0.6,0.6,1.3,0.9,2.1,0.9c0.9,0,1.6-0.3,2.2-0.9s0.9-1.4,0.9-2.4s-0.3-1.8-0.9-2.3s-1.3-0.8-2.1-0.8
	c-0.8,0-1.5,0.3-2.2,0.9C126.5,15.5,126.2,16.3,126.2,17.3z"/>
</svg>
